<svg width="472" height="63" viewBox="0 0 472 63" fill="none" xmlns="http://www.w3.org/2000/svg">
<path d="M32.4992 31.7366V31.4998M56.7734 55.0267C51.6392 60.0029 36.6094 53.5037 23.2034 40.5102C9.79748 27.5167 3.09188 12.9494 8.22608 7.97317C13.3603 2.99695 28.3901 9.49621 41.796 22.4897C55.202 35.4832 61.9076 50.0505 56.7734 55.0267ZM8.22661 55.0269C3.09241 50.0506 9.798 35.4833 23.204 22.4898C36.6099 9.49636 51.6397 2.99709 56.7739 7.97332C61.9081 12.9495 55.2025 27.5169 41.7965 40.5103C28.3906 53.5038 13.3608 60.0031 8.22661 55.0269Z" stroke="#00AA97" stroke-width="2" stroke-linecap="round"/>
<path d="M77.1339 19.1761V13.0909H105.804V19.1761H95.1169V48H87.8214V19.1761H77.1339ZM145.332 30.5455C145.332 34.3523 144.61 37.5909 143.167 40.2614C141.735 42.9318 139.781 44.9716 137.303 46.3807C134.837 47.7784 132.065 48.4773 128.985 48.4773C125.883 48.4773 123.099 47.7727 120.633 46.3636C118.167 44.9545 116.218 42.9148 114.786 40.2443C113.354 37.5739 112.639 34.3409 112.639 30.5455C112.639 26.7386 113.354 23.5 114.786 20.8295C116.218 18.1591 118.167 16.125 120.633 14.7273C123.099 13.3182 125.883 12.6136 128.985 12.6136C132.065 12.6136 134.837 13.3182 137.303 14.7273C139.781 16.125 141.735 18.1591 143.167 20.8295C144.61 23.5 145.332 26.7386 145.332 30.5455ZM137.849 30.5455C137.849 28.0795 137.479 26 136.741 24.3068C136.014 22.6136 134.985 21.3295 133.656 20.4545C132.326 19.5795 130.769 19.142 128.985 19.142C127.201 19.142 125.644 19.5795 124.315 20.4545C122.985 21.3295 121.951 22.6136 121.212 24.3068C120.485 26 120.122 28.0795 120.122 30.5455C120.122 33.0114 120.485 35.0909 121.212 36.7841C121.951 38.4773 122.985 39.7614 124.315 40.6364C125.644 41.5114 127.201 41.9489 128.985 41.9489C130.769 41.9489 132.326 41.5114 133.656 40.6364C134.985 39.7614 136.014 38.4773 136.741 36.7841C137.479 35.0909 137.849 33.0114 137.849 30.5455ZM155.119 48V13.0909H169.096C171.665 13.0909 173.807 13.4716 175.522 14.233C177.238 14.9943 178.528 16.0511 179.392 17.4034C180.255 18.7443 180.687 20.2898 180.687 22.0398C180.687 23.4034 180.415 24.6023 179.869 25.6364C179.324 26.6591 178.574 27.5 177.619 28.1591C176.676 28.8068 175.596 29.267 174.38 29.5398V29.8807C175.71 29.9375 176.954 30.3125 178.113 31.0057C179.284 31.6989 180.233 32.6705 180.96 33.9205C181.687 35.1591 182.051 36.6364 182.051 38.3523C182.051 40.2045 181.591 41.858 180.67 43.3125C179.761 44.7557 178.415 45.8977 176.63 46.7386C174.846 47.5795 172.647 48 170.034 48H155.119ZM162.5 41.9659H168.517C170.574 41.9659 172.074 41.5739 173.017 40.7898C173.96 39.9943 174.432 38.9375 174.432 37.6193C174.432 36.6534 174.199 35.8011 173.733 35.0625C173.267 34.3239 172.602 33.7443 171.738 33.3239C170.886 32.9034 169.869 32.6932 168.687 32.6932H162.5V41.9659ZM162.5 27.6989H167.971C168.983 27.6989 169.88 27.5227 170.665 27.1705C171.46 26.8068 172.085 26.2955 172.54 25.6364C173.005 24.9773 173.238 24.1875 173.238 23.267C173.238 22.0057 172.79 20.9886 171.892 20.2159C171.005 19.4432 169.744 19.0568 168.108 19.0568H162.5V27.6989ZM191.173 48V13.0909H214.696V19.1761H198.554V27.4943H213.486V33.5795H198.554V41.9148H214.764V48H191.173ZM228.992 48.4432C227.867 48.4432 226.901 48.0455 226.094 47.25C225.299 46.4432 224.901 45.4773 224.901 44.3523C224.901 43.2386 225.299 42.2841 226.094 41.4886C226.901 40.6932 227.867 40.2955 228.992 40.2955C230.083 40.2955 231.038 40.6932 231.856 41.4886C232.674 42.2841 233.083 43.2386 233.083 44.3523C233.083 45.1023 232.89 45.7898 232.503 46.4148C232.128 47.0284 231.634 47.5227 231.02 47.8977C230.407 48.2614 229.731 48.4432 228.992 48.4432Z" fill="url(#paint0_linear_65_4)"/>
<path d="M257.29 48V13.0909H280.812V19.1761H264.67V27.4943H279.602V33.5795H264.67V41.9148H280.881V48H257.29ZM320.199 13.0909V48H313.824L298.637 26.0284H298.381V48H291V13.0909H297.478L312.546 35.0455H312.853V13.0909H320.199ZM330.617 48V13.0909H354.14V19.1761H337.998V27.4943H352.93V33.5795H337.998V41.9148H354.208V48H330.617ZM364.328 48V13.0909H378.101C380.737 13.0909 382.987 13.5625 384.851 14.5057C386.726 15.4375 388.152 16.7614 389.129 18.4773C390.118 20.1818 390.612 22.1875 390.612 24.4943C390.612 26.8125 390.112 28.8068 389.112 30.4773C388.112 32.1364 386.663 33.4091 384.765 34.2955C382.879 35.1818 380.595 35.625 377.913 35.625H368.691V29.6932H376.72C378.129 29.6932 379.299 29.5 380.231 29.1136C381.163 28.7273 381.856 28.1477 382.311 27.375C382.777 26.6023 383.01 25.642 383.01 24.4943C383.01 23.3352 382.777 22.358 382.311 21.5625C381.856 20.767 381.157 20.1648 380.214 19.7557C379.282 19.3352 378.106 19.125 376.686 19.125H371.709V48H364.328ZM383.18 32.1136L391.856 48H383.709L375.22 32.1136H383.18ZM423.296 24.375C423.057 23.5455 422.722 22.8125 422.29 22.1761C421.858 21.5284 421.33 20.983 420.705 20.5398C420.091 20.0852 419.386 19.7386 418.591 19.5C417.807 19.2614 416.938 19.142 415.983 19.142C414.199 19.142 412.631 19.5852 411.279 20.4716C409.938 21.358 408.892 22.6477 408.142 24.3409C407.392 26.0227 407.017 28.0795 407.017 30.5114C407.017 32.9432 407.386 35.0114 408.125 36.7159C408.864 38.4205 409.909 39.7216 411.261 40.6193C412.614 41.5057 414.21 41.9489 416.051 41.9489C417.722 41.9489 419.148 41.6534 420.33 41.0625C421.523 40.4602 422.432 39.6136 423.057 38.5227C423.693 37.4318 424.011 36.142 424.011 34.6534L425.511 34.875H416.511V29.3182H431.119V33.7159C431.119 36.7841 430.472 39.4205 429.176 41.625C427.881 43.8182 426.097 45.5114 423.824 46.7045C421.551 47.8864 418.949 48.4773 416.017 48.4773C412.744 48.4773 409.869 47.7557 407.392 46.3125C404.915 44.858 402.983 42.7955 401.597 40.125C400.222 37.4432 399.534 34.2614 399.534 30.5795C399.534 27.75 399.943 25.2273 400.761 23.0114C401.591 20.7841 402.75 18.8977 404.239 17.3523C405.727 15.8068 407.46 14.6307 409.438 13.8239C411.415 13.017 413.557 12.6136 415.864 12.6136C417.841 12.6136 419.682 12.9034 421.386 13.483C423.091 14.0511 424.602 14.858 425.921 15.9034C427.25 16.9489 428.335 18.1932 429.176 19.6364C430.017 21.0682 430.557 22.6477 430.796 24.375H423.296ZM437.532 13.0909H445.799L453.759 28.125H454.1L462.06 13.0909H470.327L457.594 35.6591V48H450.265V35.6591L437.532 13.0909Z" fill="white"/>
<path d="M32.4992 31.7366V31.4998M56.7734 55.0267C51.6392 60.0029 36.6094 53.5037 23.2034 40.5102C9.79748 27.5167 3.09188 12.9494 8.22608 7.97317C13.3603 2.99695 28.3901 9.49621 41.796 22.4897C55.202 35.4832 61.9076 50.0505 56.7734 55.0267ZM8.22661 55.0269C3.09241 50.0506 9.798 35.4833 23.204 22.4898C36.6099 9.49636 51.6397 2.99709 56.7739 7.97332C61.9081 12.9495 55.2025 27.5169 41.7965 40.5103C28.3906 53.5038 13.3608 60.0031 8.22661 55.0269Z" stroke="#00AA97" stroke-width="2" stroke-linecap="round"/>
<path d="M77.1339 19.1761V13.0909H105.804V19.1761H95.1169V48H87.8214V19.1761H77.1339ZM145.332 30.5455C145.332 34.3523 144.61 37.5909 143.167 40.2614C141.735 42.9318 139.781 44.9716 137.303 46.3807C134.837 47.7784 132.065 48.4773 128.985 48.4773C125.883 48.4773 123.099 47.7727 120.633 46.3636C118.167 44.9545 116.218 42.9148 114.786 40.2443C113.354 37.5739 112.639 34.3409 112.639 30.5455C112.639 26.7386 113.354 23.5 114.786 20.8295C116.218 18.1591 118.167 16.125 120.633 14.7273C123.099 13.3182 125.883 12.6136 128.985 12.6136C132.065 12.6136 134.837 13.3182 137.303 14.7273C139.781 16.125 141.735 18.1591 143.167 20.8295C144.61 23.5 145.332 26.7386 145.332 30.5455ZM137.849 30.5455C137.849 28.0795 137.479 26 136.741 24.3068C136.014 22.6136 134.985 21.3295 133.656 20.4545C132.326 19.5795 130.769 19.142 128.985 19.142C127.201 19.142 125.644 19.5795 124.315 20.4545C122.985 21.3295 121.951 22.6136 121.212 24.3068C120.485 26 120.122 28.0795 120.122 30.5455C120.122 33.0114 120.485 35.0909 121.212 36.7841C121.951 38.4773 122.985 39.7614 124.315 40.6364C125.644 41.5114 127.201 41.9489 128.985 41.9489C130.769 41.9489 132.326 41.5114 133.656 40.6364C134.985 39.7614 136.014 38.4773 136.741 36.7841C137.479 35.0909 137.849 33.0114 137.849 30.5455ZM155.119 48V13.0909H169.096C171.665 13.0909 173.807 13.4716 175.522 14.233C177.238 14.9943 178.528 16.0511 179.392 17.4034C180.255 18.7443 180.687 20.2898 180.687 22.0398C180.687 23.4034 180.415 24.6023 179.869 25.6364C179.324 26.6591 178.574 27.5 177.619 28.1591C176.676 28.8068 175.596 29.267 174.38 29.5398V29.8807C175.71 29.9375 176.954 30.3125 178.113 31.0057C179.284 31.6989 180.233 32.6705 180.96 33.9205C181.687 35.1591 182.051 36.6364 182.051 38.3523C182.051 40.2045 181.591 41.858 180.67 43.3125C179.761 44.7557 178.415 45.8977 176.63 46.7386C174.846 47.5795 172.647 48 170.034 48H155.119ZM162.5 41.9659H168.517C170.574 41.9659 172.074 41.5739 173.017 40.7898C173.96 39.9943 174.432 38.9375 174.432 37.6193C174.432 36.6534 174.199 35.8011 173.733 35.0625C173.267 34.3239 172.602 33.7443 171.738 33.3239C170.886 32.9034 169.869 32.6932 168.687 32.6932H162.5V41.9659ZM162.5 27.6989H167.971C168.983 27.6989 169.88 27.5227 170.665 27.1705C171.46 26.8068 172.085 26.2955 172.54 25.6364C173.005 24.9773 173.238 24.1875 173.238 23.267C173.238 22.0057 172.79 20.9886 171.892 20.2159C171.005 19.4432 169.744 19.0568 168.108 19.0568H162.5V27.6989ZM191.173 48V13.0909H214.696V19.1761H198.554V27.4943H213.486V33.5795H198.554V41.9148H214.764V48H191.173ZM228.992 48.4432C227.867 48.4432 226.901 48.0455 226.094 47.25C225.299 46.4432 224.901 45.4773 224.901 44.3523C224.901 43.2386 225.299 42.2841 226.094 41.4886C226.901 40.6932 227.867 40.2955 228.992 40.2955C230.083 40.2955 231.038 40.6932 231.856 41.4886C232.674 42.2841 233.083 43.2386 233.083 44.3523C233.083 45.1023 232.89 45.7898 232.503 46.4148C232.128 47.0284 231.634 47.5227 231.02 47.8977C230.407 48.2614 229.731 48.4432 228.992 48.4432Z" fill="url(#paint1_linear_65_4)"/>
<path d="M257.29 48V13.0909H280.812V19.1761H264.67V27.4943H279.602V33.5795H264.67V41.9148H280.881V48H257.29ZM320.199 13.0909V48H313.824L298.637 26.0284H298.381V48H291V13.0909H297.478L312.546 35.0455H312.853V13.0909H320.199ZM330.617 48V13.0909H354.14V19.1761H337.998V27.4943H352.93V33.5795H337.998V41.9148H354.208V48H330.617ZM364.328 48V13.0909H378.101C380.737 13.0909 382.987 13.5625 384.851 14.5057C386.726 15.4375 388.152 16.7614 389.129 18.4773C390.118 20.1818 390.612 22.1875 390.612 24.4943C390.612 26.8125 390.112 28.8068 389.112 30.4773C388.112 32.1364 386.663 33.4091 384.765 34.2955C382.879 35.1818 380.595 35.625 377.913 35.625H368.691V29.6932H376.72C378.129 29.6932 379.299 29.5 380.231 29.1136C381.163 28.7273 381.856 28.1477 382.311 27.375C382.777 26.6023 383.01 25.642 383.01 24.4943C383.01 23.3352 382.777 22.358 382.311 21.5625C381.856 20.767 381.157 20.1648 380.214 19.7557C379.282 19.3352 378.106 19.125 376.686 19.125H371.709V48H364.328ZM383.18 32.1136L391.856 48H383.709L375.22 32.1136H383.18ZM423.296 24.375C423.057 23.5455 422.722 22.8125 422.29 22.1761C421.858 21.5284 421.33 20.983 420.705 20.5398C420.091 20.0852 419.386 19.7386 418.591 19.5C417.807 19.2614 416.938 19.142 415.983 19.142C414.199 19.142 412.631 19.5852 411.279 20.4716C409.938 21.358 408.892 22.6477 408.142 24.3409C407.392 26.0227 407.017 28.0795 407.017 30.5114C407.017 32.9432 407.386 35.0114 408.125 36.7159C408.864 38.4205 409.909 39.7216 411.261 40.6193C412.614 41.5057 414.21 41.9489 416.051 41.9489C417.722 41.9489 419.148 41.6534 420.33 41.0625C421.523 40.4602 422.432 39.6136 423.057 38.5227C423.693 37.4318 424.011 36.142 424.011 34.6534L425.511 34.875H416.511V29.3182H431.119V33.7159C431.119 36.7841 430.472 39.4205 429.176 41.625C427.881 43.8182 426.097 45.5114 423.824 46.7045C421.551 47.8864 418.949 48.4773 416.017 48.4773C412.744 48.4773 409.869 47.7557 407.392 46.3125C404.915 44.858 402.983 42.7955 401.597 40.125C400.222 37.4432 399.534 34.2614 399.534 30.5795C399.534 27.75 399.943 25.2273 400.761 23.0114C401.591 20.7841 402.75 18.8977 404.239 17.3523C405.727 15.8068 407.46 14.6307 409.438 13.8239C411.415 13.017 413.557 12.6136 415.864 12.6136C417.841 12.6136 419.682 12.9034 421.386 13.483C423.091 14.0511 424.602 14.858 425.921 15.9034C427.25 16.9489 428.335 18.1932 429.176 19.6364C430.017 21.0682 430.557 22.6477 430.796 24.375H423.296ZM437.532 13.0909H445.799L453.759 28.125H454.1L462.06 13.0909H470.327L457.594 35.6591V48H450.265V35.6591L437.532 13.0909Z" fill="white"/>
<defs>
<linearGradient id="paint0_linear_65_4" x1="60" y1="31" x2="226.736" y2="31" gradientUnits="userSpaceOnUse">
<stop stop-color="#00AA97"/>
<stop offset="1" stop-color="#0085E3"/>
</linearGradient>
<linearGradient id="paint1_linear_65_4" x1="60" y1="31" x2="226.736" y2="31" gradientUnits="userSpaceOnUse">
<stop stop-color="#00AA97"/>
<stop offset="1" stop-color="#0085E3"/>
</linearGradient>
</defs>
</svg>
